# MagicaVoxel @ Ephtracy

# group
o 

# material
mtllib Item.mtl
usemtl palette

# normals
vn -1 0 0
vn 1 0 0
vn 0 0 1
vn 0 0 -1
vn 0 -1 0
vn 0 1 0

# texcoords
vt 0.306641 0.5
vt 0.958984 0.5
vt 0.994141 0.5

# verts
v -1.7 0.3 1.8
v -1.7 0.3 -1.7
v -1.7 3.8 1.8
v -1.7 3.8 -1.7
v 1.8 0.3 1.8
v 1.8 0.3 -1.7
v 1.8 3.8 1.8
v 1.8 3.8 -1.7
v -1.7 0.3 1.8
v -1.7 3.8 1.8
v -1.1 2.7 1.8
v -1.1 3 1.8
v -1 3 1.8
v -1 3.1 1.8
v -0.9 3.1 1.8
v -0.9 3.2 1.8
v -0.8 2.7 1.8
v -0.8 2.9 1.8
v -0.8 3.2 1.8
v -0.8 3.3 1.8
v -0.7 2.9 1.8
v -0.7 3 1.8
v -0.7 3.3 1.8
v -0.7 3.4 1.8
v -0.5 3 1.8
v -0.5 3.1 1.8
v -0.5 3.4 1.8
v -0.5 3.5 1.8
v -0.3 0.7 1.8
v -0.3 1 1.8
v -0.3 1.6 1.8
v -0.3 2 1.8
v -0.2 0.6 1.8
v -0.2 0.7 1.8
v -0.2 1 1.8
v -0.2 1.1 1.8
v -0.2 1.5 1.8
v -0.2 1.6 1.8
v -0.2 2 1.8
v -0.2 2.2 1.8
v 1.19209e-07 2.2 1.8
v 1.19209e-07 2.3 1.8
v 0.1 0.6 1.8
v 0.1 0.7 1.8
v 0.1 1 1.8
v 0.1 1.1 1.8
v 0.1 1.5 1.8
v 0.1 1.9 1.8
v 0.1 3.4 1.8
v 0.1 3.5 1.8
v 0.2 0.7 1.8
v 0.2 1 1.8
v 0.2 1.9 1.8
v 0.2 2 1.8
v 0.2 2.3 1.8
v 0.2 2.4 1.8
v 0.2 3 1.8
v 0.2 3.1 1.8
v 0.3 2 1.8
v 0.3 2.1 1.8
v 0.3 2.4 1.8
v 0.3 2.5 1.8
v 0.3 2.9 1.8
v 0.3 3 1.8
v 0.4 2.1 1.8
v 0.4 2.2 1.8
v 0.4 2.5 1.8
v 0.4 2.9 1.8
v 0.4 3.3 1.8
v 0.4 3.4 1.8
v 0.5 2.2 1.8
v 0.5 2.3 1.8
v 0.5 3.2 1.8
v 0.5 3.3 1.8
v 0.6 2.3 1.8
v 0.6 2.4 1.8
v 0.6 3.1 1.8
v 0.6 3.2 1.8
v 0.7 2.4 1.8
v 0.7 2.5 1.8
v 0.7 2.9 1.8
v 0.7 3.1 1.8
v 0.8 2.5 1.8
v 0.8 2.9 1.8
v 1.8 0.3 1.8
v 1.8 3.8 1.8
v -1.7 0.3 -1.7
v -1.7 3.8 -1.7
v 1.8 0.3 -1.7
v 1.8 3.8 -1.7
v -1.7 0.3 1.8
v 1.8 0.3 1.8
v -1.7 0.3 -1.7
v 1.8 0.3 -1.7
v -1.7 3.8 1.8
v 1.8 3.8 1.8
v -1.7 3.8 -1.7
v 1.8 3.8 -1.7

# faces
f 3/3/1 2/3/1 1/3/1
f 4/3/1 2/3/1 3/3/1
f 5/3/2 6/3/2 7/3/2
f 7/3/2 6/3/2 8/3/2
f 11/3/3 10/3/3 9/3/3
f 12/3/3 10/3/3 11/3/3
f 13/2/3 12/2/3 11/2/3
f 13/3/3 10/3/3 12/3/3
f 14/3/3 10/3/3 13/3/3
f 15/2/3 14/2/3 13/2/3
f 15/3/3 10/3/3 14/3/3
f 16/3/3 10/3/3 15/3/3
f 17/3/3 11/3/3 9/3/3
f 17/2/3 13/2/3 11/2/3
f 17/2/3 16/2/3 15/2/3
f 17/2/3 15/2/3 13/2/3
f 18/2/3 16/2/3 17/2/3
f 19/3/3 10/3/3 16/3/3
f 19/2/3 16/2/3 18/2/3
f 20/3/3 10/3/3 19/3/3
f 21/3/3 18/3/3 17/3/3
f 21/2/3 19/2/3 18/2/3
f 21/2/3 20/2/3 19/2/3
f 22/2/3 20/2/3 21/2/3
f 23/3/3 10/3/3 20/3/3
f 23/2/3 20/2/3 22/2/3
f 24/3/3 10/3/3 23/3/3
f 25/3/3 22/3/3 21/3/3
f 25/2/3 23/2/3 22/2/3
f 25/2/3 24/2/3 23/2/3
f 26/2/3 24/2/3 25/2/3
f 27/3/3 10/3/3 24/3/3
f 27/2/3 24/2/3 26/2/3
f 28/3/3 10/3/3 27/3/3
f 29/3/3 26/3/3 25/3/3
f 29/3/3 17/3/3 9/3/3
f 29/3/3 21/3/3 17/3/3
f 29/3/3 25/3/3 21/3/3
f 30/3/3 26/3/3 29/3/3
f 31/3/3 26/3/3 30/3/3
f 32/3/3 26/3/3 31/3/3
f 33/3/3 29/3/3 9/3/3
f 34/2/3 30/2/3 29/2/3
f 34/3/3 29/3/3 33/3/3
f 35/3/3 31/3/3 30/3/3
f 35/2/3 30/2/3 34/2/3
f 36/3/3 31/3/3 35/3/3
f 37/3/3 31/3/3 36/3/3
f 38/2/3 32/2/3 31/2/3
f 38/3/3 31/3/3 37/3/3
f 39/3/3 26/3/3 32/3/3
f 39/2/3 32/2/3 38/2/3
f 40/3/3 26/3/3 39/3/3
f 41/2/3 38/2/3 37/2/3
f 41/3/3 26/3/3 40/3/3
f 41/2/3 40/2/3 39/2/3
f 41/2/3 39/2/3 38/2/3
f 42/3/3 26/3/3 41/3/3
f 43/2/3 36/2/3 35/2/3
f 43/3/3 33/3/3 9/3/3
f 43/2/3 34/2/3 33/2/3
f 43/2/3 35/2/3 34/2/3
f 44/2/3 36/2/3 43/2/3
f 45/2/3 36/2/3 44/2/3
f 46/3/3 37/3/3 36/3/3
f 46/2/3 36/2/3 45/2/3
f 47/2/3 42/2/3 41/2/3
f 47/3/3 37/3/3 46/3/3
f 47/2/3 41/2/3 37/2/3
f 48/2/3 42/2/3 47/2/3
f 49/2/3 28/2/3 27/2/3
f 49/2/3 27/2/3 26/2/3
f 50/3/3 10/3/3 28/3/3
f 50/2/3 28/2/3 49/2/3
f 51/3/3 44/3/3 43/3/3
f 51/2/3 45/2/3 44/2/3
f 52/3/3 48/3/3 47/3/3
f 52/2/3 45/2/3 51/2/3
f 52/3/3 46/3/3 45/3/3
f 52/3/3 47/3/3 46/3/3
f 53/2/3 42/2/3 48/2/3
f 53/3/3 48/3/3 52/3/3
f 54/2/3 42/2/3 53/2/3
f 55/3/3 26/3/3 42/3/3
f 55/2/3 42/2/3 54/2/3
f 56/3/3 26/3/3 55/3/3
f 57/3/3 26/3/3 56/3/3
f 58/2/3 49/2/3 26/2/3
f 58/3/3 26/3/3 57/3/3
f 59/3/3 52/3/3 51/3/3
f 59/3/3 54/3/3 53/3/3
f 59/3/3 53/3/3 52/3/3
f 59/2/3 56/2/3 55/2/3
f 59/2/3 55/2/3 54/2/3
f 60/2/3 56/2/3 59/2/3
f 61/3/3 57/3/3 56/3/3
f 61/2/3 56/2/3 60/2/3
f 62/3/3 57/3/3 61/3/3
f 63/3/3 57/3/3 62/3/3
f 64/2/3 58/2/3 57/2/3
f 64/3/3 57/3/3 63/3/3
f 65/3/3 60/3/3 59/3/3
f 65/2/3 61/2/3 60/2/3
f 65/2/3 62/2/3 61/2/3
f 66/2/3 62/2/3 65/2/3
f 67/3/3 63/3/3 62/3/3
f 67/2/3 62/2/3 66/2/3
f 68/2/3 64/2/3 63/2/3
f 68/3/3 63/3/3 67/3/3
f 69/2/3 58/2/3 64/2/3
f 69/2/3 64/2/3 68/2/3
f 69/2/3 49/2/3 58/2/3
f 70/3/3 50/3/3 49/3/3
f 70/2/3 49/2/3 69/2/3
f 71/2/3 68/2/3 67/2/3
f 71/3/3 66/3/3 65/3/3
f 71/2/3 69/2/3 68/2/3
f 71/2/3 67/2/3 66/2/3
f 72/2/3 69/2/3 71/2/3
f 73/2/3 69/2/3 72/2/3
f 74/3/3 70/3/3 69/3/3
f 74/2/3 69/2/3 73/2/3
f 75/2/3 73/2/3 72/2/3
f 75/3/3 72/3/3 71/3/3
f 76/2/3 73/2/3 75/2/3
f 77/2/3 73/2/3 76/2/3
f 78/3/3 74/3/3 73/3/3
f 78/2/3 73/2/3 77/2/3
f 79/2/3 77/2/3 76/2/3
f 79/3/3 76/3/3 75/3/3
f 80/2/3 77/2/3 79/2/3
f 81/2/3 77/2/3 80/2/3
f 82/3/3 78/3/3 77/3/3
f 82/2/3 77/2/3 81/2/3
f 83/2/3 81/2/3 80/2/3
f 83/3/3 80/3/3 79/3/3
f 84/3/3 82/3/3 81/3/3
f 84/2/3 81/2/3 83/2/3
f 85/3/3 65/3/3 59/3/3
f 85/3/3 51/3/3 43/3/3
f 85/3/3 84/3/3 83/3/3
f 85/3/3 83/3/3 79/3/3
f 85/3/3 79/3/3 75/3/3
f 85/3/3 43/3/3 9/3/3
f 85/3/3 75/3/3 71/3/3
f 85/3/3 59/3/3 51/3/3
f 85/3/3 71/3/3 65/3/3
f 86/3/3 50/3/3 70/3/3
f 86/3/3 84/3/3 85/3/3
f 86/3/3 82/3/3 84/3/3
f 86/3/3 10/3/3 50/3/3
f 86/3/3 74/3/3 78/3/3
f 86/3/3 70/3/3 74/3/3
f 86/3/3 78/3/3 82/3/3
f 87/3/4 88/3/4 89/3/4
f 89/3/4 88/3/4 90/3/4
f 93/3/5 92/3/5 91/3/5
f 94/3/5 92/3/5 93/3/5
f 95/3/6 96/3/6 97/3/6
f 97/3/6 96/3/6 98/3/6
